#!OML:ASF I:\Random Stuff\random\construction\7_22_03\Session 2\subj1.ASF
:FULLY-SPECIFIED
:DEGREES
511
root -1.6704 17.7338 0.414949 -19.2542 83.6249 -25.8998
lowerback -1.79585 0.425635 1.46279
upperback -4.02823 0.662156 0.8596
thorax -3.12572 0.330975 0.0562398
lowerneck -21.5738 -1.97824 0.307741
upperneck 29.9934 -4.28795 5.08428
head 13.9686 -0.893513 1.25574
rclavicle -2.34597e-014 -5.61567e-015
rhumerus 44.1969 8.02317 -69.6428
rradius 104.782
rwrist -49.6656
rhand -27.9524 4.53799
rfingers 7.12502
rthumb -1.3399 -25.4376
lclavicle -2.34597e-014 -5.61567e-015
lhumerus -38.8557 -40.5528 110.881
lradius 68.3769
lwrist 49.9662
lhand -21.9069 61.6689
lfingers 7.12502
lthumb 4.49862 -91.6012
rfemur -2.50323 17.443 20.284
rtibia 4.20698
rfoot -2.213 -21.3121
rtoes -17.96
lfemur -9.81102 -16.5599 -13.188
ltibia 20.3429
lfoot -16.0065 18.1447
ltoes -27.3013
512
root -1.66702 17.732 0.419798 -20.1827 83.719 -26.7605
lowerback -1.78927 0.40417 1.42546
upperback -3.99989 0.632349 0.863107
thorax -3.10068 0.317133 0.0810769
lowerneck -21.6509 -1.96373 0.329044
upperneck 30.269 -4.24919 4.98604
head 14.1 -0.876234 1.22522
rclavicle 6.43876e-015 1.31695e-014
rhumerus 43.9294 8.05347 -69.5743
rradius 104.968
rwrist -49.6166
rhand -27.928 4.79834
rfingers 7.12502
rthumb -1.31635 -25.1773
lclavicle 6.43876e-015 1.31695e-014
lhumerus -38.9189 -40.4013 110.935
lradius 68.2861
lwrist 49.8769
lhand -21.7777 61.7822
lfingers 7.12502
lthumb 4.62338 -91.7117
rfemur -2.20931 17.3244 20.3868
rtibia 3.85184
rfoot -1.94313 -21.2326
rtoes -18.4071
lfemur -9.77709 -16.5103 -13.1382
ltibia 20.4007
lfoot -16.0261 17.9912
ltoes -27.2499
513
root -1.66468 17.731 0.423872 -20.8514 83.7712 -27.3524
lowerback -1.75062 0.396302 1.37549
upperback -3.96969 0.621747 0.887863
thorax -3.09195 0.313478 0.134374
lowerneck -21.6404 -1.92123 0.419745
upperneck 30.4356 -4.15566 4.78832
head 14.1585 -0.847565 1.15029
rclavicle 2.24471e-014 1.46107e-014
rhumerus 43.7286 8.09942 -69.5102
rradius 105.154
rwrist -49.7371
rhand -27.99 4.94672
rfingers 7.12502
rthumb -1.37624 -25.0286
lclavicle 2.24471e-014 1.46107e-014
lhumerus -39.0149 -40.2471 111.032
lradius 68.2408
lwrist 49.8882
lhand -22.0551 61.6586
lfingers 7.12502
lthumb 4.35555 -91.5938
rfemur -2.01081 17.2535 20.4652
rtibia 3.67006
rfoot -1.88601 -21.2162
rtoes -18.2515
lfemur -9.69811 -16.6323 -13.1098
ltibia 20.4181
lfoot -16.0474 18.0386
ltoes -27.2107
514
root -1.66412 17.7309 0.426938 -21.1934 83.824 -27.6424
lowerback -1.74662 0.35881 1.25675
upperback -3.92784 0.571529 0.95338
thorax -3.05284 0.292921 0.268735
lowerneck -21.568 -1.86636 0.50569
upperneck 30.5166 -4.02311 4.54614
head 14.1636 -0.813953 1.06348
rclavicle 1.67771e-014 7.10655e-015
rhumerus 43.7034 8.23108 -69.4481
rradius 105.335
rwrist -49.9341
rhand -28.0848 4.93232
rfingers 7.12502
rthumb -1.46779 -25.0424
lclavicle 1.67771e-014 7.10655e-015
lhumerus -39.0249 -40.0184 111.063
lradius 68.2023
lwrist 49.8522
lhand -21.8741 61.7123
lfingers 7.12502
lthumb 4.53035 -91.6439
rfemur -1.91346 17.1929 20.4966
rtibia 3.61636
rfoot -1.90006 -21.2219
rtoes -18.0818
lfemur -9.639 -16.8952 -13.1071
ltibia 20.4098
lfoot -16.063 18.2156
ltoes -27.2564
515
root -1.664 17.7309 0.42834 -21.1777 83.8828 -27.6013
lowerback -1.77435 0.334133 1.14913
upperback -3.88705 0.537114 0.987677
thorax -2.99627 0.279377 0.364852
lowerneck -21.5664 -1.83864 0.571574
upperneck 30.6033 -3.94279 4.3527
head 14.191 -0.797088 0.989982
rclavicle -5.22897e-015 -7.25564e-015
rhumerus 43.7668 8.31518 -69.4453
rradius 105.445
rwrist -50.1455
rhand -28.1124 4.82752
rfingers 7.12502
rthumb -1.4945 -25.147
lclavicle -5.22897e-015 -7.25564e-015
lhumerus -39.0402 -39.8595 111.087
lradius 68.1332
lwrist 49.8599
lhand -21.5562 62.0673
lfingers 7.12502
lthumb 4.83731 -91.9921
rfemur -1.90039 17.1393 20.4761
rtibia 3.6588
rfoot -1.8537 -21.2163
rtoes -18.4377
lfemur -9.60201 -16.9429 -13.1375
ltibia 20.38
lfoot -16.1011 18.1688
ltoes -27.2716
516
root -1.66373 17.7305 0.42873 -21.0726 83.9033 -27.4732
lowerback -1.77103 0.336635 1.09008
upperback -3.86801 0.539938 1.00177
thorax -2.979 0.282602 0.412389
lowerneck -21.5953 -1.83065 0.531463
upperneck 30.7048 -3.90681 4.32072
head 14.2406 -0.786895 0.992299
rclavicle -2.16023e-015 3.8266e-015
rhumerus 43.8119 8.3815 -69.5145
rradius 105.468
rwrist -50.2915
rhand -28.185 5.0851
rfingers 7.12502
rthumb -1.56457 -24.8889
lclavicle -2.16023e-015 3.8266e-015
lhumerus -39.1298 -39.8221 111.165
lradius 68.0852
lwrist 50.0112
lhand -21.3569 62.4136
lfingers 7.12502
lthumb 5.02974 -92.3339
rfemur -1.93097 17.1242 20.4551
rtibia 3.74903
rfoot -1.82497 -21.2253
rtoes -18.765
lfemur -9.56275 -16.7882 -13.1639
ltibia 20.3418
lfoot -16.0994 17.9161
ltoes -27.1012
517
root -1.66447 17.7311 0.428235 -20.9112 83.9078 -27.308
lowerback -1.74026 0.336867 1.02855
upperback -3.87721 0.541687 1.02862
thorax -3.00661 0.285693 0.474159
lowerneck -21.5188 -1.81202 0.457736
upperneck 30.7342 -3.85188 4.3353
head 14.237 -0.769323 1.02201
rclavicle 1.31835e-014 5.14355e-015
rhumerus 43.8771 8.49388 -69.6273
rradius 105.446
rwrist -50.3151
rhand -28.3477 5.59798
rfingers 7.12502
rthumb -1.72169 -24.3748
lclavicle 1.31835e-014 5.14355e-015
lhumerus -39.2474 -39.8199 111.269
lradius 68.0392
lwrist 50.1946
lhand -21.3061 62.6316
lfingers 7.12502
lthumb 5.07876 -92.5507
rfemur -2.00714 17.125 20.4229
rtibia 3.85911
rfoot -1.86259 -21.2511
rtoes -18.7204
lfemur -9.55976 -16.6115 -13.1822
ltibia 20.3073
lfoot -15.9972 17.6514
ltoes -26.7144
518
root -1.66567 17.7324 0.426913 -20.7912 83.8942 -27.1887
lowerback -1.71524 0.351414 1.01044
upperback -3.88135 0.561797 1.03649
thorax -3.02524 0.29635 0.492009
lowerneck -21.4194 -1.80971 0.475647
upperneck 30.7347 -3.83942 4.30582
head 14.2138 -0.766507 1.00984
rclavicle 8.01118e-015 2.85753e-015
rhumerus 43.9584 8.57442 -69.7977
rradius 105.437
rwrist -50.287
rhand -28.5115 5.97458
rfingers 7.12502
rthumb -1.87993 -23.9969
lclavicle 8.01118e-015 2.85753e-015
lhumerus -39.3695 -39.8702 111.36
lradius 67.9668
lwrist 50.2848
lhand -21.2883 62.8149
lfingers 7.12502
lthumb 5.09597 -92.7337
rfemur -2.05041 17.141 20.3974
rtibia 3.89504
rfoot -1.90717 -21.2678
rtoes -18.4196
lfemur -9.55955 -16.4665 -13.1935
ltibia 20.2928
lfoot -15.9484 17.5666
ltoes -26.7695
519
root -1.66613 17.7326 0.425952 -20.8488 83.8375 -27.232
lowerback -1.69749 0.38682 1.04822
upperback -3.86914 0.608779 1.03167
thorax -3.02227 0.318491 0.465361
lowerneck -21.3993 -1.82779 0.525205
upperneck 30.7951 -3.87715 4.28779
head 14.2357 -0.7765 0.9885
rclavicle 1.15e-014 -1.3418e-015
rhumerus 44.0334 8.60691 -70.0214
rradius 105.437
rwrist -50.3405
rhand -28.6438 6.09784
rfingers 7.12502
rthumb -2.00767 -23.8725
lclavicle 1.15e-014 -1.3418e-015
lhumerus -39.5248 -39.9817 111.452
lradius 67.8917
lwrist 50.3006
lhand -21.0794 63.0299
lfingers 7.12502
lthumb 5.29765 -92.9437
rfemur -2.01241 17.1919 20.4207
rtibia 3.81122
rfoot -1.89439 -21.2717
rtoes -18.0977
lfemur -9.53587 -16.3891 -13.1733
ltibia 20.3016
lfoot -16.0524 17.7084
ltoes -27.6543
520
root -1.66663 17.7323 0.425202 -21.1738 83.7574 -27.5497
lowerback -1.66353 0.420061 1.12955
upperback -3.8779 0.654497 1.03574
thorax -3.04979 0.339017 0.423257
lowerneck -21.4189 -1.82039 0.614797
upperneck 30.9072 -3.87496 4.21084
head 14.2853 -0.770949 0.944365
rclavicle 7.21837e-015 -1.51573e-015
rhumerus 44.1044 8.65823 -70.2763
rradius 105.477
rwrist -50.5945
rhand -28.7899 6.24395
rfingers 7.12502
rthumb -2.14883 -23.725
lclavicle 7.21837e-015 -1.51573e-015
lhumerus -39.696 -40.1099 111.553
lradius 67.801
lwrist 50.2172
lhand -20.6146 63.3062
lfingers 7.12502
lthumb 5.74648 -93.2083
rfemur -1.95044 17.255 20.4912
rtibia 3.66618
rfoot -1.82339 -21.2697
rtoes -17.9199
lfemur -9.53497 -16.3027 -13.1016
ltibia 20.3243
lfoot -15.9875 17.4233
ltoes -26.4493
